<svg width="173" height="27" viewBox="0 0 173 27" fill="none" xmlns="http://www.w3.org/2000/svg">
<path fill-rule="evenodd" clip-rule="evenodd" d="M11.0772 4.76689C12.467 3.31771 14.7254 1.64942 17.5266 1.64941C19.4734 1.64941 20.9601 2.71488 21.6956 4.19083C22.4186 5.64142 22.4088 7.46208 21.5145 9.03008L13.2459 23.5273C12.3945 25.3138 9.84051 25.3138 8.9891 23.5273L0.720525 9.03007C-0.151606 7.50096 -0.218816 5.69847 0.447334 4.24213C1.13147 2.74645 2.58053 1.65508 4.54479 1.65508C7.35897 1.65508 9.62971 3.34612 11.0772 4.76689ZM17.5266 4.00974C15.1485 4.00975 13.0943 5.87798 12.0575 7.24362C11.8431 7.52605 11.5131 7.69709 11.1587 7.70946C10.8043 7.72183 10.4632 7.5742 10.2296 7.30741C8.97383 5.8731 6.92673 4.01541 4.54479 4.01541C3.55651 4.01541 2.91604 4.51939 2.59378 5.22393C2.25352 5.9678 2.26303 6.97037 2.77081 7.86067L11.0642 22.4014C11.0837 22.4357 11.1015 22.4708 11.1175 22.5068C11.1335 22.4708 11.1513 22.4357 11.1708 22.4014L19.4642 7.86069C19.9696 6.97469 19.9538 5.98744 19.5831 5.24363C19.2251 4.52518 18.5305 4.00974 17.5266 4.00974Z" fill="black"/>
<path d="M10.036 22.9862C10.4513 23.9207 11.7776 23.9207 12.1929 22.9862L15.3106 15.9714L6.91832 15.9714L10.036 22.9862Z" fill="black"/>
<path d="M28.0894 21V4.84132H33.2944C34.7223 4.84132 36.006 5.16686 37.1454 5.81794C38.2848 6.46163 39.1726 7.37536 39.8089 8.55915C40.4526 9.73553 40.7781 11.0562 40.7855 12.5211V13.2647C40.7855 14.7444 40.4711 16.0725 39.8422 17.2489C39.2207 18.4179 38.3403 19.3353 37.2009 20.0012C36.0689 20.6597 34.8037 20.9926 33.4054 21H28.0894ZM31.9848 7.84888V18.0035H33.3388C34.456 18.0035 35.3142 17.6077 35.9135 16.8161C36.5128 16.017 36.8125 14.8332 36.8125 13.2647V12.5655C36.8125 11.0044 36.5128 9.82802 35.9135 9.03636C35.3142 8.2447 34.4412 7.84888 33.2944 7.84888H31.9848ZM52.8047 14.1525H46.6786V18.0035H53.9145V21H42.7832V4.84132H53.9367V7.84888H46.6786V11.256H52.8047V14.1525ZM63.8361 16.7051C63.8361 16.1354 63.6326 15.6915 63.2257 15.3733C62.8262 15.0552 62.1196 14.7259 61.106 14.3856C60.0924 14.0453 59.2637 13.716 58.62 13.3979C56.5262 12.3695 55.4793 10.9563 55.4793 9.15844C55.4793 8.2632 55.7382 7.47524 56.2561 6.79457C56.7814 6.10649 57.5213 5.57379 58.4757 5.19645C59.4302 4.81172 60.503 4.61936 61.6942 4.61936C62.8558 4.61936 63.8953 4.82652 64.8127 5.24085C65.7375 5.65517 66.4552 6.24706 66.9657 7.01653C67.4762 7.77859 67.7315 8.65163 67.7315 9.63565H63.8472C63.8472 8.97717 63.6437 8.46666 63.2368 8.10413C62.8373 7.74159 62.2935 7.56033 61.6054 7.56033C60.9099 7.56033 60.3587 7.7157 59.9518 8.02644C59.5522 8.32979 59.3525 8.71822 59.3525 9.19173C59.3525 9.60606 59.5744 9.98339 60.0184 10.3237C60.4623 10.6567 61.2428 11.0044 62.36 11.3669C63.4772 11.7221 64.3947 12.1068 65.1123 12.5211C66.8584 13.5273 67.7315 14.9146 67.7315 16.6829C67.7315 18.096 67.1988 19.2058 66.1334 20.0123C65.068 20.8187 63.6067 21.222 61.7497 21.222C60.4401 21.222 59.2526 20.9889 58.1872 20.5228C57.1292 20.0493 56.3301 19.4056 55.79 18.5917C55.2573 17.7705 54.991 16.8272 54.991 15.7617H58.8975C58.8975 16.6274 59.1194 17.2674 59.5633 17.6817C60.0147 18.0886 60.7434 18.2921 61.7497 18.2921C62.3933 18.2921 62.9001 18.1552 63.2701 17.8815C63.6474 17.6003 63.8361 17.2082 63.8361 16.7051ZM73.8798 21H69.9955V4.84132H73.8798V21ZM89.8165 19.0024C89.2172 19.6682 88.3405 20.2046 87.1863 20.6116C86.0321 21.0185 84.7669 21.222 83.3907 21.222C81.2747 21.222 79.5841 20.5746 78.319 19.2798C77.0538 17.985 76.3768 16.1835 76.288 13.8751L76.2769 12.4767C76.2769 10.886 76.5581 9.49878 77.1204 8.31499C77.6827 7.12381 78.4854 6.21007 79.5286 5.57379C80.5793 4.9301 81.7926 4.60826 83.1688 4.60826C85.1812 4.60826 86.7423 5.07068 87.8521 5.99551C88.9693 6.91294 89.6204 8.2854 89.8054 10.1129H86.0543C85.9211 9.21023 85.6325 8.56655 85.1886 8.18182C84.7447 7.79708 84.1158 7.60472 83.302 7.60472C82.3253 7.60472 81.5707 8.01904 81.038 8.84769C80.5053 9.67635 80.2352 10.8601 80.2278 12.3991V13.3757C80.2278 14.9886 80.5016 16.202 81.0491 17.0158C81.604 17.8223 82.4733 18.2255 83.6571 18.2255C84.6707 18.2255 85.4254 17.9998 85.9211 17.5485V15.0404H83.2132V12.3658H89.8165V19.0024ZM105.576 21H101.702L95.9759 10.9452V21H92.0805V4.84132H95.9759L101.691 14.8961V4.84132H105.576V21ZM112.19 21H108.306V4.84132H112.19V21ZM123.233 16.7051C123.233 16.1354 123.029 15.6915 122.622 15.3733C122.223 15.0552 121.516 14.7259 120.502 14.3856C119.489 14.0453 118.66 13.716 118.016 13.3979C115.923 12.3695 114.876 10.9563 114.876 9.15844C114.876 8.2632 115.135 7.47524 115.653 6.79457C116.178 6.10649 116.918 5.57379 117.872 5.19645C118.827 4.81172 119.899 4.61936 121.091 4.61936C122.252 4.61936 123.292 4.82652 124.209 5.24085C125.134 5.65517 125.852 6.24706 126.362 7.01653C126.873 7.77859 127.128 8.65163 127.128 9.63565H123.244C123.244 8.97717 123.04 8.46666 122.633 8.10413C122.234 7.74159 121.69 7.56033 121.002 7.56033C120.306 7.56033 119.755 7.7157 119.348 8.02644C118.949 8.32979 118.749 8.71822 118.749 9.19173C118.749 9.60606 118.971 9.98339 119.415 10.3237C119.859 10.6567 120.639 11.0044 121.757 11.3669C122.874 11.7221 123.791 12.1068 124.509 12.5211C126.255 13.5273 127.128 14.9146 127.128 16.6829C127.128 18.096 126.595 19.2058 125.53 20.0123C124.464 20.8187 123.003 21.222 121.146 21.222C119.837 21.222 118.649 20.9889 117.584 20.5228C116.526 20.0493 115.727 19.4056 115.186 18.5917C114.654 17.7705 114.387 16.8272 114.387 15.7617H118.294C118.294 16.6274 118.516 17.2674 118.96 17.6817C119.411 18.0886 120.14 18.2921 121.146 18.2921C121.79 18.2921 122.297 18.1552 122.667 17.8815C123.044 17.6003 123.233 17.2082 123.233 16.7051ZM139.302 14.5632H133.021V21H129.126V4.84132H139.935V7.84888H133.021V11.5667H139.302V14.5632ZM154.229 4.84132V15.4177C154.229 16.6163 153.974 17.6558 153.463 18.5362C152.953 19.4093 152.221 20.0752 151.266 20.5339C150.312 20.9926 149.183 21.222 147.881 21.222C145.913 21.222 144.363 20.7115 143.231 19.6904C142.099 18.6694 141.522 17.2711 141.5 15.4954V4.84132H145.417V15.5731C145.462 17.3414 146.283 18.2255 147.881 18.2255C148.688 18.2255 149.298 18.0035 149.712 17.5596C150.127 17.1157 150.334 16.3943 150.334 15.3955V4.84132H154.229ZM170.166 21H166.293L160.566 10.9452V21H156.671V4.84132H160.566L166.282 14.8961V4.84132H170.166V21Z" fill="#2D2D2D"/>
</svg>
