<svg width="15" height="13" viewBox="0 0 15 13" fill="none" xmlns="http://www.w3.org/2000/svg">
<path d="M7.5 11.5L6.79289 12.2071L7.5 12.9142L8.20711 12.2071L7.5 11.5ZM5.70711 8.29289C5.31658 7.90237 4.68342 7.90237 4.29289 8.29289C3.90237 8.68342 3.90237 9.31658 4.29289 9.70711L5.70711 8.29289ZM14.7071 5.70711C15.0976 5.31658 15.0976 4.68342 14.7071 4.29289C14.3166 3.90237 13.6834 3.90237 13.2929 4.29289L14.7071 5.70711ZM8.20711 10.7929L5.70711 8.29289L4.29289 9.70711L6.79289 12.2071L8.20711 10.7929ZM13.2929 4.29289L6.79289 10.7929L8.20711 12.2071L14.7071 5.70711L13.2929 4.29289Z" fill="#D8B5B8"/>
<path d="M14.5498 1.71698C14.9458 1.33198 14.9547 0.698878 14.5697 0.302903C14.1847 -0.0930724 13.5516 -0.101973 13.1556 0.283023L14.5498 1.71698ZM5.28417 9.33093L4.57707 10.038L5.2743 10.7353L5.98127 10.0479L5.28417 9.33093ZM1.70702 4.33957C1.31649 3.94904 0.68333 3.94904 0.292805 4.33957C-0.0977188 4.73009 -0.0977188 5.36325 0.292805 5.75378L1.70702 4.33957ZM13.1556 0.283023L4.58708 8.61396L5.98127 10.0479L14.5498 1.71698L13.1556 0.283023ZM5.99128 8.62383L1.70702 4.33957L0.292805 5.75378L4.57707 10.038L5.99128 8.62383Z" fill="#DD3041"/>
</svg>
